<?xml version="1.0" encoding="UTF-8"?>
<svg id="Layer_1" data-name="Layer 1" xmlns="http://www.w3.org/2000/svg" version="1.1" viewBox="0 0 2496.9 2500.8">
  <defs>
    <style>
      .cls-1, .cls-2 {
        fill: #f5af30;
      }

      .cls-1, .cls-3 {
        stroke-width: 0px;
      }

      .cls-2 {
        font-size: 408.4px;
      }

      .cls-2, .cls-4 {
        font-family: Lato-Black, Lato;
        font-weight: 800;
      }

      .cls-3, .cls-4 {
        fill: #030302;
      }

      .cls-4 {
        font-size: 151.7px;
      }
    </style>
  </defs>
  <g>
    <path class="cls-1" d="M1040.6,635.6c41-184.5,146.1-316,322.7-385.6,241.9-95.4,517.8,8.4,639.5,238.5,162.6,307.3-12.9,683.3-353.1,750.1-171.2,33.6-324.6-8.3-453.2-130.2,39.6-38.1,79.2-76.1,118.8-114.2,6.8-6.5,12.7-4,21.6-3.1,21.7,2.1,42.2,17.5,61.6,13.4,40.3-8.4,80-21.6,118.2-37.2,29.3-12,12.1-36.2,6.1-54.8-5.4-16.8-11.5-35.4-37.6-24.2-24.3,10.3-49.7,17.8-80.6,28.5,15.1-27.4,36.2-35.5,56.4-43.2,74.3-28.1,149-54.9,223.4-82.7,68.1-25.4,137.9-47.2,197.9-90,29.1-20.8,27.9-45-4.5-53.8-73.7-20.2-148-36.3-224-7.2-71,27.2-142.8,52.4-214.2,78.5-13.6,5-27.1,12.6-41.9,8.7-118.9-31.2-239.7-55.1-357.2-91.5Z"/>
    <path class="cls-3" d="M1040.6,635.6c117.6,36.4,238.3,60.3,357.2,91.5,14.8,3.9,28.3-3.7,41.9-8.7,71.4-26.2,143.2-51.3,214.2-78.5,76-29.1,150.4-13,224,7.2,32.3,8.9,33.6,33.1,4.5,53.8-60,42.8-129.9,64.7-197.9,90-74.4,27.7-149.2,54.5-223.4,82.7-20.2,7.7-41.3,15.8-56.4,43.2,30.8-10.8,56.3-18.2,80.6-28.5,26.1-11.1,32.2,7.5,37.6,24.2,6,18.6,23.2,42.9-6.1,54.8-38.2,15.6-77.9,28.8-118.2,37.2-19.4,4-39.9-11.3-61.6-13.4-8.9-.9-14.8-3.5-21.6,3.1-39.6,38.1-79.2,76.1-118.8,114.2-76.8,65.7-145.9,139.6-219.3,209-28.2,26.7-59.6,45.6-101.8,55.3,63.4-98.6,132-187.4,196.8-278.8,13.6-19.2,26.6-38.9,40.3-58,5.5-7.7,10.7-17,5.2-24.6-5.6-7.8-16.4-5.7-25-2.5-26.2,9.7-52.2,19.9-78.4,29.9-129.2,49-259.6,90.9-400.2,93.4-38.3.7-76.3,16.4-114.5,24.8-6.6,1.4-15.1,9.3-20.4-1.8-5.4-11.6,3.5-15.9,11.8-19.9,21.2-10.2,42-21.2,63.7-30,19.9-8,20.8-17.2,10.2-35.1-41.9-70.3-81.5-141.9-123.5-212.1-13.1-22-14.1-29.2,13.2-42.9,49.7-25,83.8-13,121.2,22.6,43,40.9,91.4,76.1,136.7,114.5,16.9,14.3,34.7,20.9,55.7,13.2,93.3-34.4,186.5-69.2,279.7-103.9,44.9-16.3,89.8-32.6,140.6-51-38.7-19.6-71-36.4-103.7-52.5-17-8.4-34.6-15.5-51.9-23.1-97.9-48.2-195.7-96.3-297.6-146.4,26.8-15.3,50.3-15.6,75-9.4,76.7,19.2,153.5,38,230.2,57Z"/>
    <path class="cls-1" d="M1033,734.5c17.3,7.7,34.9,14.8,51.9,23.1,32.7,16.1,65.1,32.9,103.7,52.5-50.7,18.4-95.7,34.7-140.6,51-9.9-41.7-18.4-83.5-15.1-126.7Z"/>
  </g>
  <g>
    <text class="cls-2" transform="translate(90.8 1745.1)"><tspan x="0" y="0">APPUNTI DI</tspan><tspan x="271.8" y="369.1">VIAGGIO</tspan></text>
    <text class="cls-4" transform="translate(781.8 2313)"><tspan x="0" y="0">travel agency</tspan></text>
  </g>
</svg>